<svg width="344" height="344" viewBox="0 0 344 344" fill="none" xmlns="http://www.w3.org/2000/svg">
<path fill-rule="evenodd" clip-rule="evenodd" d="M344 172C344 266.993 266.993 344 172 344C77.007 344 0 266.993 0 172C0 77.007 77.007 0 172 0C266.993 0 344 77.007 344 172ZM289 171.5C289 236.393 236.393 289 171.5 289C106.607 289 54 236.393 54 171.5C54 106.607 106.607 54 171.5 54C236.393 54 289 106.607 289 171.5ZM172 233C205.689 233 233 205.689 233 172C233 138.311 205.689 111 172 111C138.311 111 111 138.311 111 172C111 205.689 138.311 233 172 233Z" fill="#040000"/>
</svg>
